<?xml version="1.0" standalone="no"?>
<!DOCTYPE svg PUBLIC "-//W3C//DTD SVG 20010904//EN"
 "http://www.w3.org/TR/2001/REC-SVG-20010904/DTD/svg10.dtd">
<svg version="1.0" xmlns="http://www.w3.org/2000/svg"
 width="545.000000pt" height="111.000000pt" viewBox="0 0 545.000000 111.000000"
 preserveAspectRatio="xMidYMid meet">

<g transform="translate(0.000000,111.000000) scale(0.100000,-0.100000)"
fill="#000000" stroke="none">
<path d="M4525 690 c-56 -12 -86 -24 -130 -54 l-38 -26 -1684 0 -1685 0 -71
32 c-67 31 -79 33 -182 33 -107 0 -112 -1 -185 -37 -90 -45 -140 -48 -220 -13
-50 22 -56 22 -67 8 -17 -22 6 -46 111 -117 150 -100 265 -142 369 -134 65 6
112 24 160 64 l29 24 1707 0 1708 0 84 -39 c156 -73 240 -72 397 4 101 49 135
54 203 30 34 -12 44 -13 51 -3 13 21 10 26 -41 66 -147 116 -384 191 -516 162z
m89 -36 c14 -5 13 -10 -4 -44 -10 -21 -27 -40 -36 -44 -28 -11 -134 -20 -134
-11 0 4 14 25 31 46 36 46 100 70 143 53z m-3898 -48 l39 -33 -73 -13 -72 -13
-30 28 c-34 32 -32 41 13 54 58 17 82 12 123 -23z m128 13 c78 -29 78 -39 2
-39 -59 0 -69 3 -98 30 l-33 29 37 1 c21 0 62 -9 92 -21z m3927 2 c65 -22 143
-60 136 -67 -2 -2 -33 3 -68 12 -43 11 -90 15 -146 12 -80 -4 -82 -4 -71 16
27 53 58 59 149 27z m-321 1 c0 -4 -13 -16 -30 -25 -16 -10 -30 -14 -30 -8 0
6 12 17 28 25 32 18 32 18 32 8z m-3923 -60 c-34 -4 -48 5 -27 18 8 5 22 4 34
-3 20 -11 20 -12 -7 -15z m4233 -62 l42 -50 -26 -11 c-27 -12 -74 3 -176 55
l-44 24 64 15 c93 22 94 22 140 -33z m123 25 l42 -12 -32 -17 c-18 -9 -39 -16
-48 -16 -26 0 -73 28 -85 51 -11 20 -10 20 35 14 25 -4 65 -13 88 -20z m-4247
-31 c-25 -18 -67 -18 -111 0 -19 8 -35 16 -35 18 0 2 37 1 82 0 74 -3 81 -5
64 -18z m179 12 c-16 -7 -40 -27 -53 -45 -23 -32 -49 -38 -100 -25 -22 6 -22
7 -6 33 28 44 44 51 118 51 68 -1 70 -1 41 -14z m3770 -34 c36 -17 75 -39 88
-48 21 -15 19 -16 -48 -11 -53 3 -90 13 -152 42 -46 21 -83 42 -83 48 0 21
127 0 195 -31z m-3705 3 c0 -8 -59 -35 -77 -35 -16 1 -15 3 6 20 20 18 71 28
71 15z"/>
</g>
</svg>
