<?xml version="1.0" standalone="no"?>
<!DOCTYPE svg PUBLIC "-//W3C//DTD SVG 20010904//EN"
 "http://www.w3.org/TR/2001/REC-SVG-20010904/DTD/svg10.dtd">
<svg version="1.0" xmlns="http://www.w3.org/2000/svg"
 width="110px" height="110px" viewBox="0 0 1024.000000 1024.000000"
 preserveAspectRatio="xMidYMid meet">

<g transform="translate(0.000000,1024.000000) scale(0.100000,-0.100000)"
fill="#000000" stroke="none">
<path d="M4940 9135 c-147 -33 -279 -92 -406 -181 l-60 -42 -395 -4 c-431 -5
-440 -6 -560 -69 -102 -55 -199 -169 -251 -298 l-23 -56 0 -3645 0 -3645 23
-70 c65 -195 229 -357 413 -408 118 -33 247 -29 324 10 42 22 169 107 401 268
197 138 260 182 513 365 199 144 216 153 256 146 21 -4 95 -50 190 -119 378
-272 453 -325 671 -471 297 -200 331 -216 449 -216 50 0 118 7 150 15 172 44
319 162 394 316 77 161 71 -196 71 3804 0 3952 5 3636 -61 3768 -46 89 -154
194 -249 240 -129 63 -145 65 -555 66 l-370 1 -75 50 c-102 66 -248 135 -345
161 -105 28 -403 37 -505 14z m402 -416 c147 -37 258 -106 372 -231 121 -131
176 -283 176 -481 0 -137 -20 -223 -77 -337 -85 -170 -232 -295 -421 -358 -69
-23 -92 -26 -222 -26 -129 0 -154 3 -223 26 -214 71 -406 259 -468 457 -42
136 -43 322 -3 460 32 112 81 190 188 296 113 112 193 160 326 195 104 26 247
26 352 -1z m-842 -2235 c615 -613 626 -624 665 -624 38 0 49 10 573 533 294
292 571 570 615 615 45 46 95 91 111 99 38 20 90 9 116 -24 20 -25 20 -37 20
-507 0 -429 -2 -484 -16 -506 -27 -41 -1327 -1340 -1356 -1356 -33 -17 -85
-18 -117 0 -39 22 -1313 1288 -1343 1335 l-28 45 0 479 c0 323 4 485 11 498
14 27 68 50 99 43 16 -3 253 -233 650 -630z m-365 -2161 c146 -142 431 -421
634 -620 302 -298 374 -363 396 -363 32 0 23 -8 771 727 276 271 514 497 530
503 39 15 79 4 109 -32 l25 -30 0 -451 c0 -431 -1 -454 -21 -497 -15 -35 -169
-194 -686 -707 -722 -718 -695 -695 -768 -660 -51 25 -1344 1313 -1366 1362
-17 37 -19 75 -19 496 0 451 0 457 21 483 24 30 51 44 87 45 17 1 92 -66 287
-256z"/>
</g>
</svg>
